Coordinates
version=1
nRows=39
nColumns=18
inDegrees=yes

Units are S.I. units (second, meters, Newtons, ...)
If the header above contains a line with 'inDegrees', this indicates whether rotational values are in degrees (yes) or radians (no).

endheader
time	ground_thorax_rot_x	ground_thorax_rot_y	ground_thorax_rot_z	ground_thorax_tx	ground_thorax_ty	ground_thorax_tz	clav_prot	clav_elev	scapula_abduction	scapula_elevation	scapula_upward_rot	scapula_winging	plane_elv	shoulder_elv	axial_rot	elbow_flexion	pro_sup
      0.00000000	      3.08687602	     -3.80240235	     -8.62421065	     -0.00481554	      0.00400595	      0.00092366	    -23.61876506	     -5.73690833	    -15.65465125	     -4.38652690	      9.95942977	      6.65789124	    -21.73454606	     15.37370986	     43.68822851	      0.00000000	     34.32000000
      0.01000000	      3.08672799	     -3.80290200	     -8.62471477	     -0.00487301	      0.00396300	      0.00096016	    -23.61894231	     -5.73669306	    -15.65493527	     -4.38640797	      9.95956254	      6.65778885	    -21.73469835	     15.37444261	     43.68826225	      0.00000000	     34.32000000
      0.02000000	      3.08356933	     -3.82532082	     -8.65039067	     -0.00478296	      0.00381878	      0.00101392	    -23.62997386	     -5.72391559	    -15.67093243	     -4.38017860	      9.97052110	      6.65079395	    -21.74154761	     15.42535137	     43.69072904	      0.00000000	     34.32000000
      0.03000000	      3.18783931	     -3.84483236	     -8.64927364	     -0.00473356	      0.00392257	      0.00106737	    -23.65626805	     -5.76285483	    -15.69730165	     -4.41682159	      9.98783681	      6.65951271	    -21.75099654	     15.57112851	     43.69638399	      0.00000000	     34.32000000
      0.04000000	      3.18929752	     -3.84579149	     -8.64954274	     -0.00481562	      0.00383510	      0.00099674	    -23.65627005	     -5.76299755	    -15.69777589	     -4.41667573	      9.98717793	      6.66074278	    -21.75129831	     15.57082329	     43.69632883	      0.00000000	     34.32000000
      0.05000000	      3.21093709	     -3.85388509	     -8.65107357	     -0.00484682	      0.00384195	      0.00108660	    -23.65433455	     -5.77211389	    -15.70155316	     -4.41899691	      9.97023032	      6.66804130	    -21.75714604	     15.56860112	     43.69572152	      0.00000000	     34.32000000
      0.06000000	      3.20995394	     -3.85327708	     -8.65095851	     -0.00484690	      0.00384636	      0.00118884	    -23.65437289	     -5.77206513	    -15.70124656	     -4.41914892	      9.97092216	      6.66785620	    -21.75706422	     15.56944203	     43.69578444	      0.00000000	     34.32000000
      0.07000000	      3.18677720	     -3.84608291	     -8.65204282	     -0.00482551	      0.00382572	      0.00115650	    -23.65796262	     -5.76868505	    -15.69757285	     -4.42207298	      9.99040750	      6.66197299	    -21.75689590	     15.59959334	     43.69760108	      0.00000000	     34.32000000
      0.08000000	      3.18710210	     -3.84661502	     -8.65249129	     -0.00482434	      0.00385757	      0.00108535	    -23.65801541	     -5.76855706	    -15.69789877	     -4.42187466	      9.99003252	      6.66201992	    -21.75711694	     15.59966785	     43.69757324	      0.00000000	     34.32000000
      0.09000000	      3.20321747	     -3.86759229	     -8.66812750	     -0.00474420	      0.00386398	      0.00102385	    -23.66030473	     -5.76733012	    -15.71439080	     -4.41495803	      9.96762480	      6.66706500	    -21.76879021	     15.59771399	     43.69599491	      0.00000000	     34.32000000
      0.10000000	      3.20468646	     -3.86808672	     -8.66762603	     -0.00472153	      0.00380483	      0.00090310	    -23.66030045	     -5.76796304	    -15.71466870	     -4.41520669	      9.96677837	      6.66749565	    -21.76891674	     15.59688174	     43.69593883	      0.00000000	     34.32000000
      0.11000000	      3.23697966	     -3.87318186	     -8.66108656	     -0.00473097	      0.00378574	      0.00097459	    -23.65939444	     -5.78596361	    -15.72109555	     -4.42298152	      9.94434860	      6.67925877	    -21.77135764	     15.58582963	     43.69553835	      0.00000000	     34.32000000
      0.12000000	      3.23794483	     -3.87394614	     -8.66124754	     -0.00483077	      0.00366979	      0.00100024	    -23.65954641	     -5.78641174	    -15.72148611	     -4.42322067	      9.94391721	      6.67952294	    -21.77152007	     15.58637411	     43.69558270	      0.00000000	     34.32000000
      0.13000000	      3.27856351	     -3.91149229	     -8.66889852	     -0.00485112	      0.00371379	      0.00116815	    -23.66543264	     -5.80843246	    -15.73902198	     -4.43434367	      9.92077763	      6.69295867	    -21.77364043	     15.63051493	     43.70063473	      0.00000000	     34.32000000
      0.14000000	      3.27836289	     -3.91123197	     -8.66863672	     -0.00483568	      0.00376007	      0.00115292	    -23.66535898	     -5.80867727	    -15.73881740	     -4.43453904	      9.92081464	      6.69303508	    -21.77343298	     15.63069307	     43.70070163	      0.00000000	     34.32000000
      0.15000000	      3.27858530	     -3.91052973	     -8.66797219	     -0.00474994	      0.00383572	      0.00107410	    -23.66505527	     -5.80913713	    -15.73839200	     -4.43477396	      9.92043855	      6.69328467	    -21.77312779	     15.62993633	     43.70072988	      0.00000000	     34.32000000
      0.16000000	      3.27204035	     -3.88563445	     -8.65522687	     -0.00481379	      0.00395429	      0.00102445	    -23.65211666	     -5.82264089	    -15.72338037	     -4.43922210	      9.90134770	      6.70251991	    -21.76322580	     15.60668913	     43.70295152	      0.00000000	     34.32000000
      0.17000000	      3.27096346	     -3.88593943	     -8.65610220	     -0.00487433	      0.00400248	      0.00106485	    -23.65212375	     -5.82211901	    -15.72355884	     -4.43879654	      9.90126924	      6.70235481	    -21.76327349	     15.60716050	     43.70302142	      0.00000000	     34.32000000
      0.18000000	      3.27068505	     -3.88654208	     -8.65673253	     -0.00493122	      0.00393882	      0.00109460	    -23.65219050	     -5.82189248	    -15.72386980	     -4.43855347	      9.90100748	      6.70233946	    -21.76345801	     15.60770004	     43.70308146	      0.00000000	     34.32000000
      0.19000000	      3.26629958	     -3.91310854	     -8.67809319	     -0.00487398	      0.00381858	      0.00109795	    -23.65382390	     -5.81570875	    -15.73758190	     -4.42912488	      9.88368609	      6.70439106	    -21.77153065	     15.62112521	     43.70540864	      0.00000000	     34.32000000
      0.20000000	      3.26630184	     -3.91405132	     -8.67843071	     -0.00494068	      0.00383355	      0.00105186	    -23.65392897	     -5.81569204	    -15.73795239	     -4.42902522	      9.88334496	      6.70446937	    -21.77165918	     15.62122225	     43.70544663	      0.00000000	     34.32000000
      0.21000000	      3.26571149	     -3.91511042	     -8.67887484	     -0.00499242	      0.00389577	      0.00101051	    -23.65409320	     -5.81543957	    -15.73838530	     -4.42879401	      9.88317797	      6.70442314	    -21.77173744	     15.62141690	     43.70549377	      0.00000000	     34.32000000
      0.22000000	      3.16825418	     -4.02195516	     -8.62384029	     -0.00493020	      0.00394355	      0.00103926	    -23.65824782	     -5.83655475	    -15.76349310	     -4.43391552	      9.84105904	      6.72213515	    -21.75693596	     15.57059404	     43.71426494	      0.00000000	     34.32000000
      0.23000000	      3.10556358	     -4.01050151	     -8.62643179	     -0.00493742	      0.00402200	      0.00091320	    -23.64270421	     -5.83068701	    -15.74482560	     -4.42504783	      9.82883005	      6.72284724	    -21.74480941	     15.53176641	     43.71943478	      0.00000000	     34.32000000
      0.24000000	      2.99600012	     -4.01489670	     -8.62843571	     -0.00491128	      0.00403477	      0.00086287	    -23.62164346	     -5.79783618	    -15.72784945	     -4.39270741	      9.80822775	      6.71602685	    -21.73280791	     15.41525346	     43.72264692	      0.00000000	     34.32000000
      0.25000000	      2.96512153	     -4.01214554	     -8.62905069	     -0.00485087	      0.00409595	      0.00083091	    -23.62478727	     -5.78735108	    -15.72500415	     -4.38995067	      9.82749945	      6.70772960	    -21.72986893	     15.42206420	     43.72468109	      0.00000000	     34.32000000
      0.26000000	      2.96390500	     -4.01182552	     -8.62942671	     -0.00483833	      0.00417478	      0.00088492	    -23.62480390	     -5.78678322	    -15.72488225	     -4.38964692	      9.82800400	      6.70740776	    -21.72983959	     15.42225814	     43.72471195	      0.00000000	     34.32000000
      0.27000000	      2.96315222	     -4.01197203	     -8.63002361	     -0.00485724	      0.00422241	      0.00088224	    -23.62480988	     -5.78619792	    -15.72495781	     -4.38923006	      9.82813841	      6.70717015	    -21.72992507	     15.42224482	     43.72472465	      0.00000000	     34.32000000
      0.28000000	      2.96370027	     -4.01285710	     -8.63066077	     -0.00491282	      0.00418218	      0.00081711	    -23.62480133	     -5.78592920	    -15.72533548	     -4.38885587	      9.82753467	      6.70722276	    -21.73018477	     15.42185057	     43.72470920	      0.00000000	     34.32000000
      0.29000000	      2.98038105	     -4.04090757	     -8.65247496	     -0.00487449	      0.00404517	      0.00084318	    -23.62493839	     -5.77653576	    -15.73893364	     -4.37599939	      9.80710806	      6.70887612	    -21.73865650	     15.41513039	     43.72546994	      0.00000000	     34.32000000
      0.30000000	      2.98065039	     -4.04107743	     -8.65201596	     -0.00486458	      0.00395624	      0.00084286	    -23.62508995	     -5.77679874	    -15.73897293	     -4.37627145	      9.80736729	      6.70893630	    -21.73859055	     15.41542163	     43.72554208	      0.00000000	     34.32000000
      0.31000000	      2.96029590	     -4.03782852	     -8.64197421	     -0.00480943	      0.00389665	      0.00083520	    -23.63535573	     -5.77676794	    -15.73775853	     -4.38637134	      9.84201550	      6.70062748	    -21.73021699	     15.45136012	     43.73056267	      0.00000000	     34.32000000
      0.32000000	      2.96020346	     -4.03694415	     -8.64152012	     -0.00477433	      0.00386741	      0.00094729	    -23.63534280	     -5.77699925	    -15.73736107	     -4.38671048	      9.84260289	      6.70056534	    -21.73002998	     15.45196606	     43.73063159	      0.00000000	     34.32000000
      0.33000000	      2.96087501	     -4.03701516	     -8.64152107	     -0.00484605	      0.00378401	      0.00100366	    -23.63544910	     -5.77728933	    -15.73733184	     -4.38701407	      9.84286587	      6.70060426	    -21.73006462	     15.45278010	     43.73069670	      0.00000000	     34.32000000
      0.34000000	      3.09174457	     -4.06023652	     -8.65285598	     -0.00486420	      0.00395655	      0.00104975	    -23.64762868	     -5.81931966	    -15.72820417	     -4.43047486	      9.87979424	      6.70653093	    -21.73909296	     15.60991001	     43.74700407	      0.00000000	     34.32000000
      0.35000000	      3.09193732	     -4.06171080	     -8.65396237	     -0.00497169	      0.00399073	      0.00097146	    -23.64777241	     -5.81887210	    -15.72887570	     -4.42997655	      9.87920871	      6.70651713	    -21.73944281	     15.60994711	     43.74698921	      0.00000000	     34.32000000
      0.36000000	      3.08308365	     -4.10288596	     -8.68180852	     -0.00488791	      0.00399073	      0.00100112	    -23.64920037	     -5.79959911	    -15.74735769	     -4.40936002	      9.85815593	      6.70487770	    -21.75260726	     15.60731580	     43.74690706	      0.00000000	     34.32000000
      0.37000000	      3.08221627	     -4.10272124	     -8.68192236	     -0.00492735	      0.00400918	      0.00108229	    -23.64917310	     -5.79934809	    -15.74717879	     -4.40925965	      9.85850720	      6.70470411	    -21.75259197	     15.60763602	     43.74694871	      0.00000000	     34.32000000
      0.38000000	      3.08124557	     -4.10211714	     -8.68193897	     -0.00492266	      0.00400577	      0.00118441	    -23.64909019	     -5.79907686	    -15.74681142	     -4.40918914	      9.85903756	      6.70447897	    -21.75252331	     15.60823626	     43.74701300	      0.00000000	     34.32000000
